# xmcd
#
# Track frame offsets: 
#        150
#        13712
#        28432
#        44147
#        57540
#        71247
#        100282
#        113805
#        127715
#        143600
#        157297
#        172070
#        186255
#        201372
#        217437
#        231085
#        244645
#        257432
#        270655
#        285012
#        297895
#        312217
#        327537
#
# Disc length: 4558 seconds
#
# Revision: 0
# Processed by: cddbd v1.4PL0 Copyright (c) Steve Scherf et al.
# Submitted via: ExactAudioCopy v0.90b4
#
DISCID=6e11cc17
DTITLE=Bessie Smith - The Ultimate Collection
DYEAR=1998
DGENRE=Blues
TTITLE0=Nobody Knows You When You're Down and Out
TTITLE1=Gin House Blues
TTITLE2=T'Ain't Nobody's Business If I Do
TTITLE3=After You've Gone
TTITLE4=Sweet Mistreater
TTITLE5=Empty Bed Blues (Parts 1 and 2)
TTITLE6=Dyin' By The Hour
TTITLE7=Homeless Blues
TTITLE8=You've Been A Good Ole Wagon (But You Done Broke Down)
TTITLE9=Gulf Coast Blues
TTITLE10=Aggravatin' Papa (Don't You Try To Two-Time Me)
TTITLE11=Muddy Water (A Mississippi Moan)
TTITLE12=There'll Be A Hot Time In The Old Town Tonight
TTITLE13=Nobody In Town Can Bake A Sweet Jelly Roll Like Mine
TTITLE14=A Good Man Is Hard To Find
TTITLE15=Lock And Key
TTITLE16=Looking For My Man Blues
TTITLE17=Foolish Man Blues
TTITLE18=Hateful Blues
TTITLE19=Need A Little Sugar In My Bowl
TTITLE20=Thinking Blues
TTITLE21=Send Me To The 'Lectric Chair
TTITLE22=St. Louis Blues (Featuring Louis Armstrong)
EXTD=
EXTT0=
EXTT1=
EXTT2=
EXTT3=
EXTT4=
EXTT5=
EXTT6=
EXTT7=
EXTT8=
EXTT9=
EXTT10=
EXTT11=
EXTT12=
EXTT13=
EXTT14=
EXTT15=
EXTT16=
EXTT17=
EXTT18=
EXTT19=
EXTT20=
EXTT21=
EXTT22=
PLAYORDER=
